<svg width="48" height="48" viewBox="0 0 48 48" fill="none" xmlns="http://www.w3.org/2000/svg">
<path d="M0 24C0 13.676 0 8.51398 2.76661 4.98265C3.41323 4.15731 4.15731 3.41323 4.98265 2.76661C8.51398 0 13.676 0 24 0C34.324 0 39.486 0 43.0173 2.76661C43.8427 3.41323 44.5868 4.15731 45.2334 4.98265C48 8.51398 48 13.676 48 24V44C48 45.8856 48 46.8284 47.4142 47.4142C46.8284 48 45.8856 48 44 48H24C13.676 48 8.51398 48 4.98265 45.2334C4.15731 44.5868 3.41323 43.8427 2.76661 43.0173C0 39.486 0 34.324 0 24Z" fill="#0D5BF9"/>
</svg>
